<?xml version="1.0" encoding="UTF-8"?>
<svg xmlns="http://www.w3.org/2000/svg" xmlns:svg="http://www.w3.org/2000/svg" xmlns:sodipodi="http://sodipodi.sourceforge.net/DTD/sodipodi-0.dtd" xmlns:rdf="http://www.w3.org/1999/02/22-rdf-syntax-ns#" xmlns:inkscape="http://www.inkscape.org/namespaces/inkscape" xmlns:dc="http://purl.org/dc/elements/1.1/" xmlns:cc="http://creativecommons.org/ns#" version="1.1" viewBox="0 0 90 90">
  <defs>
    <style>
      .cls-1 {
        fill: #bbddc4;
      }
    </style>
  </defs>
  <!-- Generator: Adobe Illustrator 28.7.1, SVG Export Plug-In . SVG Version: 1.2.0 Build 142)  -->
  <g>
    <g id="Capa_1">
      <path class="cls-1" d="M56,0c-4.8,0-9,2.4-11.6,6.1-2.4-2.5-5.7-4.1-9.4-4.1-7.1,0-13,5.9-13,13s.8,5,2.1,7H3c-1.6,0-3,1.4-3,3v18c0,1.6,1.4,3,3,3h3v41c0,1.6,1.4,3,3,3h72c1.6,0,3-1.4,3-3v-41h3c1.6,0,3-1.4,3-3v-18c0-1.6-1.4-3-3-3h-19.5c1.6-2.3,2.5-5,2.5-8C70,6.3,63.7,0,56,0h0ZM56,6c4.5,0,8,3.5,8,8s-3.5,8-8,8h-8v-8c0-4.5,3.5-8,8-8ZM35,8c3.9,0,7,3.1,7,7v7h-7c-3.9,0-7-3.1-7-7s3.1-7,7-7ZM6,28h36v12H6v-12ZM48,28h36v12h-36v-12ZM12,46h30v38H12v-38ZM48,46h30v38h-30v-38Z"/>
    </g>
  </g>
</svg>