<?xml version="1.0" encoding="UTF-8"?>
<svg xmlns="http://www.w3.org/2000/svg" version="1.1" viewBox="0 0 51.7 51.6">
  <defs>
    <style>
      .cls-1 {
        fill: #333;
      }
    </style>
  </defs>
  <!-- Generator: Adobe Illustrator 28.7.1, SVG Export Plug-In . SVG Version: 1.2.0 Build 142)  -->
  <g>
    <g id="Capa_1">
      <path class="cls-1" d="M30.1,25.7L50.8,5.1c1.1-1.2,1.1-3.1-.1-4.2-1.2-1.1-2.9-1.1-4.1,0l-20.7,20.7L5.2.8C4-.3,2.1-.3,1,1-.1,2.1-.1,3.9,1,5l20.7,20.7L1,46.4c-1.2,1.1-1.3,3-.1,4.2s3,1.3,4.2.1c0,0,.1,0,.1-.1l20.7-20.7,20.7,20.7c1.2,1.1,3.1,1.1,4.2-.1,1.1-1.2,1.1-2.9,0-4.1l-20.7-20.7Z"/>
    </g>
  </g>
</svg>