<?xml version="1.0" encoding="UTF-8"?><svg id="Capa_2" xmlns="http://www.w3.org/2000/svg" viewBox="0 0 628.68 196.38"><defs><style>.cls-1{fill:#3f5b45;}</style></defs><g id="Capa_1-2"><path class="cls-1" d="m76.09,141.8H10.57c1.19,16.38,13.7,27.25,30.82,27.25,9.53,0,18.02-3.42,23.97-10.27l5.96,6.85c-7,8.34-17.87,12.8-30.23,12.8-24.42,0-41.09-16.68-41.09-39.9s16.23-39.75,38.27-39.75,37.97,16.23,37.97,39.75c0,.89-.15,2.08-.15,3.28Zm-65.51-7.89h55.54c-1.34-15.34-12.51-26.06-27.84-26.06s-26.35,10.72-27.69,26.06Z"/><path class="cls-1" d="m169.88,132.27v45.41h-10.57v-44.37c0-16.53-8.64-25.01-23.53-25.01-16.83,0-27.4,10.42-27.4,28.29v41.09h-10.57v-78.32h10.12v14.44c5.66-9.53,16.23-15.04,29.78-15.04,19.06,0,32.16,11.02,32.16,33.5Z"/><path class="cls-1" d="m188.94,125.57c0-31.27,24.57-54.2,57.92-54.2s57.92,22.93,57.92,54.2-24.57,54.2-57.92,54.2-57.92-22.93-57.92-54.2Zm86.06,0c0-18.02-12.36-29.78-28.14-29.78s-28.14,11.76-28.14,29.78,12.36,29.78,28.14,29.78,28.14-11.76,28.14-29.78Z"/><path class="cls-1" d="m419.42,73.46v104.23h-24.27l-46.01-55.54v55.54h-28.89v-104.23h24.27l46.01,55.54v-55.54h28.89Z"/><path class="cls-1" d="m584.95,19.97c.22.24.44.49.65.74-.2-.23-.42-.48-.65-.74Z"/><path class="cls-1" d="m627.04,174.81c-1.12.13-2.69.34-4.61.69-.96.18-2.02.31-3.14.5-1.12.2-2.32.35-3.57.53-2.5.36-5.22.64-8,.87-.7.06-1.4.08-2.1.13-.7.03-1.41.1-2.11.11-1.41.03-2.82.09-4.21.06-2.78.02-5.47-.18-7.95-.37-2.48-.26-4.74-.52-6.67-.86-.96-.18-1.68-.33-2.19-.51-.51-.16-.83-.3-.99-.43-.33-.24-.06-.42.45-.56.51-.16,1.23-.25,1.85-.44.62-.17,1.11-.36,1.13-.6-3.76-.22-6.47-.94-9.07-1.78-2.6-.86-5.1-1.85-8.32-3.22.02-.04-.26-.22-.77-.52-.52-.28-1.23-.74-2.13-1.29-1.52-.98-3.48-2.34-5.38-4.08.61-.08,1.23-.17,1.84-.27,2.48-.38,4.99-.83,7.53-1.39,5.07-1.15,10.32-2.72,15.6-5.43,2.63-1.36,5.26-3.02,7.75-5.08,2.48-2.07,4.79-4.56,6.7-7.35,1.91-2.79,3.4-5.86,4.43-8.95.25-.77.47-1.54.69-2.31.19-.77.37-1.53.54-2.3.15-.76.27-1.52.4-2.28.06-.38.1-.75.15-1.12l.08-.69.08-.78c.07-.96.09-1.88.05-2.81-.04-2.06-.38-4.65-1.23-7.39-.1-.34-.24-.71-.35-1.04-.11-.34-.24-.67-.38-1.01-.26-.68-.57-1.34-.89-2.02-.67-1.33-1.43-2.65-2.32-3.87-1.74-2.48-3.86-4.56-5.88-6.17-2.03-1.61-3.96-2.78-5.49-3.57-3.11-1.53-6.23-2.56-9.26-3.26-3.04-.71-6-1.1-8.89-1.31l-1.09-.08-1.33-.03c-.9,0-1.8-.05-2.7.03-.9.06-1.81.1-2.71.21-.9.12-1.8.25-2.7.4-3.58.68-7.08,1.85-10.33,3.43-6.52,3.16-12.05,7.91-16.21,13.48-2.09,2.78-3.87,5.77-5.33,8.89-1.46,3.12-2.55,6.39-3.34,9.71-.25,1.01-.45,2.03-.62,3.06-1.73-.79-3.46-1.62-5.17-2.5-2.01-1.04-4.01-2.13-5.95-3.28-1.93-1.15-3.84-2.35-5.57-3.56-.87-.6-1.69-1.21-2.37-1.77-.35-.29-.73-.55-1.07-.86l-1.03-.93c-.17-.16-.35-.3-.52-.47l-.49-.5-.99-1-.94-1.07-.47-.53c-.16-.18-.3-.38-.45-.56l-.89-1.13c-.3-.38-.56-.79-.85-1.19l-.42-.6-.21-.3-.19-.31-.79-1.25c-.27-.41-.51-.85-.75-1.28l-.73-1.3-.67-1.35c-.22-.45-.46-.89-.65-1.36-1.66-3.67-2.95-7.57-3.84-11.55-.16-.89-.35-1.78-.57-2.55-.18-.78-.36-1.44-.55-1.88-.36-.88-.68-.85-.75,1.03-.52-3.67-.72-7.42-.61-11.14.03-1.86.11-3.02.07-3.84-.02-.41-.04-.73-.06-1.01-.02-.28-.05-.52-.09-.76-.06-.48-.14-.96-.11-1.78.02-.41.07-.91.14-1.53.04-.31.09-.66.14-1.04.08-.38.16-.79.25-1.25,1.31-7.37,3.98-14.44,7.97-20.48,2.01-3.05,4.42-5.98,7.06-8.66,2.65-2.69,5.58-5.15,8.71-7.38,6.27-4.45,13.38-7.92,20.8-10.29,3.71-1.18,7.5-2.1,11.29-2.68,3.79-.57,7.59-.84,11.25-.73,3.64.14,7.18.63,10.17,1.61l.56.17.5.2.5.19c.17.06.34.12.5.21.34.16.68.32,1.02.47.34.16.68.37,1.02.55l.51.28.5.32,1.01.64c.66.5,1.34.93,1.98,1.48,1.32,1.02,2.54,2.23,3.74,3.46l.86.97.44.48.41.51.82,1.02c.27.35.51.71.77,1.06.53.7.99,1.45,1.47,2.18.25.36.46.75.68,1.13l.66,1.14c.81,1.56,1.59,3.14,2.2,4.79,1.27,3.27,2.13,6.67,2.53,10.1.37,3.43.28,6.89-.26,10.3-1.08,6.83-4.09,13.43-8.47,19.46,2.29-2.94,4.15-5.84,5.63-8.75,1.48-2.91,2.61-5.84,3.32-8.85.71-3.01,1.07-6.1.99-9.3-.08-3.2-.59-6.53-1.67-9.93.15-.05.38-.11.43-.6.03-.24,0-.6-.09-1.11-.05-.25-.1-.55-.21-.89-.11-.33-.25-.71-.41-1.14-1.91-5.16-5.03-10.2-8.93-14.26-1.94-2.03-4.07-3.81-6.25-5.23-.55-.33-1.09-.72-1.64-.99-.55-.3-1.09-.62-1.64-.85-.27-.13-.54-.26-.82-.38-.27-.11-.54-.2-.81-.31-.27-.1-.52-.21-.81-.31-.29-.09-.59-.18-.88-.27-2.35-.71-4.85-1.16-7.3-1.41-2.46-.24-4.87-.34-7.14-.29-4.55.07-8.52.54-11.52.84-.5.07-1,.12-1.52.18-.52.07-1.05.14-1.62.21-.57.07-1.17.15-1.81.26-.64.11-1.34.22-2.09.38-2.99.62-6.98,1.72-12.51,4.39,3.68-1.8,7.49-3.33,11.39-4.58-.1-.3-.29-.91-.29-.91-3.97,1.18-8.11,2.74-12.21,4.7-4.09,1.97-8.13,4.33-11.92,7.04-3.8,2.69-7.3,5.77-10.39,9.05-.39.41-.77.82-1.15,1.23-.36.42-.72.85-1.08,1.27-.35.42-.73.83-1.06,1.26-.34.43-.67.86-1,1.29-.69.84-1.27,1.73-1.88,2.58-.15.21-.3.43-.45.64-.15.22-.28.44-.42.66-.27.44-.55.88-.82,1.31,0,0-.55-.32-.83-.48-.37.59-.68,1.2-1.01,1.82-.32.62-.67,1.22-.96,1.85-.58,1.26-1.2,2.5-1.7,3.81-.65.86-.95.96-.95.42,0-.27.07-.7.22-1.28.07-.29.16-.61.26-.97.12-.35.26-.73.41-1.15.31-.83.66-1.79,1.16-2.81.24-.52.5-1.06.76-1.62.28-.56.61-1.12.93-1.72.62-1.21,1.44-2.41,2.25-3.71.89-1.25,1.8-2.6,2.87-3.89,2.09-2.63,4.53-5.29,7.26-7.77,2.72-2.48,5.7-4.81,8.75-6.88,3.05-2.07,6.18-3.88,9.18-5.41,3-1.52,5.88-2.75,8.4-3.75-.11-.3-.33-.89-.45-1.19-2.74,1.05-5.46,2.19-8.09,3.49l-.28-.57c2.98-1.49,6-2.72,9.01-3.83.76-.26,1.5-.56,2.26-.79.76-.24,1.51-.49,2.26-.73,1.52-.44,3.02-.88,4.54-1.24,6.06-1.5,12.15-2.32,18.27-2.37,3.06-.02,6.12.18,9.17.66,3.04.49,6.08,1.23,9,2.44.47.2.94.41,1.4.63.07-.14.12-.28-.33-.62-.42-.32-1.33-.83-3.18-1.46,2.02.67,4.06,1.54,5.97,2.67,2.08,1.2,4.12,2.57,6,4.17,1.9,1.59,3.72,3.32,5.37,5.23.86.92,1.61,1.94,2.42,2.92l1.11,1.54c.18.26.38.51.55.77l.52.8c5.63,8.45,8.64,18.49,9.05,27.57.1,1.13.23,1.71.36,1.71.15,0,.3-.57.44-1.72.16-1.16.23-2.9.11-5.23-.1-1.16-.17-2.48-.43-3.91-.2-1.45-.57-3.01-.99-4.72-.99-3.37-2.23-6.35-3.59-9.09-1.35-2.75-2.9-5.24-4.6-7.61-.83-1.2-1.77-2.32-2.7-3.48-.49-.55-.99-1.11-1.5-1.67-.25-.28-.51-.55-.78-.82-.27-.27-.54-.54-.81-.81-2.2-2.16-4.69-4.26-7.71-6.18l.34-.54c1.04.62,2.05,1.4,3.13,2.19,1.03.84,2.12,1.7,3.14,2.68,2.07,1.93,4.1,4.09,5.89,6.44,3.63,4.66,6.44,9.88,8.27,14.24.5,1.08.59,1.04.48.45-.12-.59-.4-1.76-.8-2.89-.19-.57-.38-1.15-.54-1.65-.18-.5-.34-.92-.42-1.22-.18-.59-.09-.64.53.41.29.53.52,1.09.77,1.64l.74,1.66.66,1.69c.22.57.46,1.12.64,1.7.38,1.15.82,2.28,1.15,3.46l.54,1.75c.18.58.31,1.18.48,1.77-.71-3.6-1.88-7.41-3.52-11.17-1.64-3.76-3.76-7.46-6.26-10.9-2.5-3.44-5.38-6.6-8.5-9.33-3.11-2.74-6.51-5.01-9.94-6.73-.57-.3-1.12-.62-1.7-.9-.58-.27-1.16-.53-1.72-.79-.14-.06-.28-.13-.42-.19-.14-.05-.27-.11-.4-.16-.27-.11-.53-.21-.78-.31-.51-.2-.99-.41-1.44-.57-.89-.32-1.63-.62-2.15-.87-.51-.23-.79-.42-.76-.58-3.11-.58-6.11-.88-9.01-.99-2.9-.11-5.7-.09-8.4.09-5.41.3-10.42,1.09-15.09,2.05-9.34,1.94-17.29,4.73-24.06,7.55-.57.23-1.39.62-2.43,1.15-.51.29-1.07.6-1.67.95-.6.35-1.26.72-1.93,1.16-2.73,1.69-5.97,4.04-9.26,6.85-3.19,2.73-6.39,5.92-9.22,9.29-1.32,1.49-2.57,3.04-3.78,4.64-.41.51-.79,1.08-1.18,1.63l-1.16,1.66c-.74,1.12-1.43,2.28-2.15,3.43-2.72,4.66-4.89,9.6-6.54,14.69-3.3,10.19-4.57,20.93-3.92,31.6.69,10.66,3.28,21.31,8.12,31.21,2.44,4.94,5.48,9.66,9.14,13.98,1.81,2.18,3.83,4.19,5.94,6.13.53.48,1.1.93,1.64,1.39.55.45,1.11.93,1.66,1.35,1.09.84,2.18,1.63,3.26,2.39,4.33,3.02,8.7,5.62,13.21,8.01,4.5,2.39,9.13,4.53,13.94,6.39,1.73.67,3.48,1.31,5.27,1.89.13.36.28.7.41,1.05.3.74.61,1.48.91,2.22.33.72.68,1.43,1.02,2.14l.52,1.06c.18.36.39.73.59,1.09.41.72.79,1.46,1.23,2.15.44.69.89,1.38,1.33,2.07.45.68.94,1.32,1.42,1.98.47.66.98,1.28,1.49,1.89,1,1.26,2.08,2.4,3.15,3.54.55.55,1.11,1.09,1.67,1.62.28.26.55.54.84.79l.87.75c4.6,4.03,9.61,7.06,14.61,9.4.62.31,1.25.56,1.88.82.62.26,1.24.51,1.86.75,1.24.43,2.46.87,3.67,1.21,2.41.7,4.75,1.22,6.96,1.56,4.43.71,8.36.81,11.58.65,3.22-.13,5.75-.51,7.47-.83.86-.15,1.52-.28,1.96-.39.44-.11.67-.17.67-.17,2.48-.33,4.88-1.01,6.05-1.56.58-.3.86-.57.69-.77-.17-.2-.78-.33-1.98-.43-1.2.03-2.61.1-4.19.08-.79,0-1.61.03-2.46-.02-.85-.03-1.74-.06-2.64-.1-3.6-.2-7.51-.67-11.07-1.41-3.57-.71-6.77-1.74-9.04-2.65-2.27-.91-3.59-1.72-3.47-2.02.03-.07.33-.02.84.13.5.15,1.22.37,2.08.63.43.13.89.28,1.39.44.49.15,1.02.28,1.56.44.54.15,1.1.3,1.67.46.57.13,1.15.27,1.73.41.04-.16.29-.28.72-.38.43-.09,1.03-.18,1.75-.26.72-.08,1.57-.12,2.49-.19.92-.08,1.91-.15,2.93-.21,1.02-.1,2.07-.18,3.1-.25,1.03-.11,2.05-.2,3.01-.28.96-.09,1.86-.19,2.66-.25.8-.05,1.5-.11,2.06-.12.56-.1,1.47-.19,2.64-.37.58-.09,1.23-.19,1.93-.3.35-.05.71-.11,1.09-.17.37-.07.76-.14,1.15-.22,3.16-.55,6.96-1.46,10.66-2.58,7.45-2.16,14.38-5.5,16.29-6.55,3-1.42,2.83-1.87.62-1.65ZM477.15,37.45v-.02c-.18.32-.37.63-.56.95l.07-.11c.16-.27.32-.54.49-.81Zm72.56,97.18c.15-.75.33-1.29.41-1.72.05-.21.07-.39.09-.54.03-.15.05-.27.05-.37.02-.4-.13-.46-.28-.51q.3.11.6.22c.21-1.54,1.19-3.66,2.49-5.48,1.28-1.85,2.84-3.36,3.83-4.38q.21.24.41.48c.94-1,2.01-1.84,3.15-2.5,1.14-.64,2.34-1.07,3.54-1.36.3-.05.6-.15.9-.19.3-.03.6-.08.91-.13.61-.02,1.21-.1,1.82-.06h.46c.18,0,.42.02.63.03.43.03.88.04,1.29.08.42.04.84.07,1.26.1l1.21.13q-.05.31-.1.63c1.55.25,2.92.61,3.79.97.89.35,1.3.65,1.23.8q-.14.29-.27.58c.44.27.87.57,1.23.82.36.25.62.46.78.63.17.17.26.31.29.44.02.06,0,.12-.02.16-.03.05-.08.08-.16.11q.3-.12.59-.23c.06.16.1.37.08.54-.01.02-.01,0-.01.05l-.04.42c-.04.27-.09.52-.13.78-.03.27-.1.5-.15.74-.05.24-.1.48-.17.69-.07.21-.11.44-.19.64-.08.2-.15.4-.21.59-.17.36-.31.73-.5,1.05-.36.66-.76,1.24-1.22,1.79-.48.54-1.03,1.05-1.66,1.55-2.52,1.99-6.52,3.6-11.12,4.67-3.49.78-7.45,1.37-11.64,1.81-1.16.11-2.42.13-3.77.07.08-1.22.25-2.59.61-4.1Z"/><path class="cls-1" d="m572.44,10.12c.27.15.56.31.86.47.3.16.61.33.93.51.32.17.63.39.96.59.65.41,1.34.83,2,1.32.33.24.67.48,1.01.72.34.24.66.52.99.78,2.27,1.8,4.31,3.84,5.77,5.46-2-2.24-4.17-4.27-6.48-6.04-2.15-1.64-4.43-3.07-6.83-4.21,0,0,0,0,0,.01.25.12.53.24.81.38Z"/></g></svg>